<svg width="12" height="12" viewBox="0 0 12 12" fill="none" xmlns="http://www.w3.org/2000/svg">
<g clip-path="url(#clip0_710_2821)">
<path d="M0.7229 5.64404V5.99584C0.7229 6.15284 0.826987 6.29096 0.978169 6.33425C1.08054 6.36345 3.51671 7.05125 5.99995 7.05125C8.48318 7.05125 10.9193 6.36345 11.0217 6.33425C11.1729 6.29096 11.277 6.15286 11.277 5.99584V5.64404C11.277 5.44959 11.1196 5.29224 10.9252 5.29224H1.0747C0.88025 5.29224 0.7229 5.44959 0.7229 5.64404Z" fill="#522583"/>
<path d="M10.2216 8.4585C10.416 8.4585 10.5734 8.30115 10.5734 8.1067V7.17412C10.0738 7.29204 9.32189 7.44979 8.44552 7.57182C8.35696 8.84969 7.29993 9.86572 5.99995 9.86572C4.69997 9.86572 3.64294 8.84969 3.55438 7.57182C2.67783 7.44977 1.926 7.29195 1.42651 7.17407V8.1067C1.42651 8.30115 1.58386 8.4585 1.77832 8.4585H2.27717C2.35893 8.74607 2.47472 9.02331 2.62349 9.28716L2.26859 9.64206C2.13117 9.77948 2.13117 10.0021 2.26859 10.1395L3.26354 11.1345C3.40095 11.2719 3.62359 11.2719 3.76101 11.1345L4.11591 10.7796C4.37976 10.9283 4.657 11.0441 4.94457 11.1259V11.6482C4.94457 11.8427 5.10192 12 5.29637 12H6.70358C6.89804 12 7.05538 11.8427 7.05538 11.6482V11.1259C7.34295 11.0441 7.62019 10.9283 7.88404 10.7796L8.23894 11.1345C8.37636 11.2719 8.599 11.2719 8.73642 11.1345L9.73136 10.1395C9.86878 10.0021 9.86878 9.77948 9.73136 9.64206L9.37646 9.28716C9.52523 9.02331 9.641 8.74607 9.72278 8.4585H10.2216Z" fill="#522583"/>
<path d="M5.441 3.85381C5.26381 3.934 5.0551 3.85463 4.97583 3.67791L3.87759 1.21937C2.62198 1.88008 1.72027 3.13383 1.49438 4.58868H10.5056C10.2797 3.13383 9.37796 1.88005 8.12235 1.21937L7.02412 3.67791C6.9448 3.85475 6.73597 3.9339 6.55894 3.85381C6.38201 3.77411 6.30299 3.56592 6.38304 3.38863L7.59868 0.669358C7.68607 0.475538 7.5855 0.239173 7.38031 0.183565C6.4776 -0.0611961 5.52222 -0.0611961 4.61952 0.183612C4.41433 0.23922 4.31376 0.475585 4.40115 0.669405L5.61691 3.38863C5.69695 3.56592 5.61829 3.77411 5.441 3.85381Z" fill="#522583"/>
</g>
<defs>
<clipPath id="clip0_710_2821">
<rect width="12" height="12" fill="white"/>
</clipPath>
</defs>
</svg>
