<svg width="14" height="15" viewBox="0 0 14 15" fill="none" xmlns="http://www.w3.org/2000/svg">
<g clip-path="url(#clip0_710_1987)">
<path d="M9.90776 12.9892L9.71215 13.7888C9.12531 14.0204 8.65654 14.1967 8.30747 14.3179C7.95803 14.4395 7.55199 14.5 7.08937 14.5C6.37894 14.5 5.82635 14.326 5.43224 13.9803C5.03812 13.6332 4.841 13.1934 4.841 12.6599C4.841 12.4534 4.85531 12.241 4.88504 12.0245C4.91503 11.8078 4.96271 11.5638 5.02796 11.291L5.76135 8.6952C5.8266 8.44664 5.88206 8.21112 5.92648 7.98841C5.97152 7.76707 5.99323 7.56343 5.99323 7.38011C5.99323 7.04861 5.9246 6.81673 5.78795 6.68636C5.65131 6.55637 5.39058 6.49037 5.00349 6.49037C4.8139 6.49037 4.61904 6.52074 4.42041 6.57946C4.22091 6.63843 4.05039 6.6954 3.90723 6.74835L4.10334 5.94808C4.58378 5.75246 5.04302 5.58495 5.4823 5.44593C5.92158 5.30653 6.33665 5.23676 6.72926 5.23676C7.4348 5.23676 7.97923 5.40728 8.36155 5.74832C8.74387 6.08961 8.93497 6.53203 8.93497 7.07722C8.93497 7.19002 8.92242 7.38877 8.89544 7.67284C8.86909 7.95754 8.82003 8.2184 8.74851 8.45567L8.01825 11.0411C7.9584 11.2487 7.90457 11.4861 7.85777 11.7533C7.80946 12.0186 7.78638 12.2214 7.78638 12.3574C7.78638 12.7007 7.86292 12.9351 8.01637 13.0597C8.17095 13.1843 8.43721 13.2463 8.81539 13.2463C8.99293 13.2463 9.19495 13.2148 9.41942 13.1529C9.64327 13.0911 9.80651 13.0367 9.90776 12.9892ZM10.093 2.13492C10.093 2.58538 9.9232 2.97008 9.58203 3.2864C9.24175 3.60385 8.8317 3.7627 8.35201 3.7627C7.87082 3.7627 7.45977 3.60385 7.11559 3.2864C6.77205 2.96995 6.5999 2.58538 6.5999 2.13492C6.5999 1.68535 6.77205 1.30002 7.11559 0.979687C7.45914 0.659854 7.87095 0.5 8.35201 0.5C8.83158 0.5 9.24175 0.66023 9.58203 0.979687C9.92345 1.30002 10.093 1.68548 10.093 2.13492Z" fill="#522583"/>
</g>
<defs>
<clipPath id="clip0_710_1987">
<rect width="14" height="14" fill="white" transform="translate(0 0.5)"/>
</clipPath>
</defs>
</svg>
