<svg width="12" height="12" viewBox="0 0 12 12" fill="none" xmlns="http://www.w3.org/2000/svg">
<path d="M9.375 6.69379V9.00004C9.375 9.10129 9.33375 9.19504 9.26625 9.26629C9.21375 9.31504 8.00625 10.5 6 10.5C3.99375 10.5 2.78625 9.31504 2.73375 9.26629C2.66625 9.19504 2.625 9.10129 2.625 9.00004V6.69379L5.4975 8.13004C5.65125 8.20879 5.8275 8.25004 6 8.25004C6.1725 8.25004 6.34875 8.20879 6.5025 8.13004L9.375 6.69379ZM11.25 7.60429V4.91929L11.4176 4.83529C11.5448 4.77191 11.625 4.64216 11.625 4.50004C11.625 4.35791 11.5448 4.22816 11.4176 4.16441L6.16763 1.53941C6.06225 1.48654 5.93775 1.48654 5.832 1.53941L0.582 4.16441C0.45525 4.22816 0.375 4.35791 0.375 4.50004C0.375 4.64216 0.45525 4.77191 0.582375 4.83566L5.83238 7.46066C5.88488 7.48691 5.94263 7.50004 6 7.50004C6.05737 7.50004 6.11513 7.48691 6.16763 7.46066L10.5 5.29429V7.60429C10.2769 7.73441 10.125 7.97329 10.125 8.25004C10.125 8.66366 10.4614 9.00004 10.875 9.00004C11.2886 9.00004 11.625 8.66366 11.625 8.25004C11.625 7.97366 11.4731 7.73441 11.25 7.60429Z" fill="#522583"/>
</svg>
