<svg width="12" height="12" viewBox="0 0 12 12" fill="none" xmlns="http://www.w3.org/2000/svg">
<g clip-path="url(#clip0_710_2038)">
<path d="M0 3.6V3C0 2.0074 0.835241 1.2 1.86207 1.2H2.48276V0H3.72414V1.2H5.37931V0H6.62069V1.2H8.27586V0H9.51724V1.2H10.1379C11.1648 1.2 12 2.0074 12 3V3.6H0ZM12 4.8V10.2C12 11.1926 11.1648 12 10.1379 12H1.86207C0.835241 12 0 11.1926 0 10.2V4.8H12ZM3.72414 8.8H2.48276V10H3.72414V8.8ZM3.72414 6.4H2.48276V7.6H3.72414V6.4ZM6.62069 8.8H5.37931V10H6.62069V8.8ZM6.62069 6.4H5.37931V7.6H6.62069V6.4ZM9.51724 8.8H8.27586V10H9.51724V8.8ZM9.51724 6.4H8.27586V7.6H9.51724V6.4Z" fill="#522583"/>
</g>
<defs>
<clipPath id="clip0_710_2038">
<rect width="12" height="12" fill="white"/>
</clipPath>
</defs>
</svg>
