<svg width="12" height="12" viewBox="0 0 12 12" fill="none" xmlns="http://www.w3.org/2000/svg">
<g clip-path="url(#clip0_710_2086)">
<path d="M9 11.5H3C2.86739 11.5 2.74022 11.4473 2.64645 11.3536C2.55268 11.2598 2.5 11.1326 2.5 11C2.5 10.8674 2.55268 10.7402 2.64645 10.6464C2.74022 10.5527 2.86739 10.5 3 10.5H9C9.13261 10.5 9.25979 10.5527 9.35355 10.6464C9.44732 10.7402 9.5 10.8674 9.5 11C9.5 11.1326 9.44732 11.2598 9.35355 11.3536C9.25979 11.4473 9.13261 11.5 9 11.5ZM11.5 3V7C11.5 7.32831 11.4353 7.6534 11.3097 7.95671C11.1841 8.26002 10.9999 8.53562 10.7678 8.76777C10.5356 8.99991 10.26 9.18406 9.95671 9.3097C9.6534 9.43534 9.32831 9.5 9 9.5H3C2.6717 9.5 2.34661 9.43534 2.04329 9.3097C1.73998 9.18406 1.46438 8.99991 1.23223 8.76777C0.763392 8.29893 0.5 7.66304 0.5 7V3C0.5 2.33696 0.763392 1.70107 1.23223 1.23223C1.70107 0.763392 2.33696 0.5 3 0.5H9C9.32831 0.5 9.6534 0.564664 9.95671 0.690301C10.26 0.815938 10.5356 1.00009 10.7678 1.23223C10.9999 1.46438 11.1841 1.73998 11.3097 2.04329C11.4353 2.34661 11.5 2.6717 11.5 3ZM2.5 4C2.5 4.13261 2.55268 4.25979 2.64645 4.35355C2.74022 4.44732 2.86739 4.5 3 4.5H6C6.13261 4.5 6.25979 4.44732 6.35355 4.35355C6.44732 4.25979 6.5 4.13261 6.5 4C6.5 3.86739 6.44732 3.74022 6.35355 3.64645C6.25979 3.55268 6.13261 3.5 6 3.5H3C2.86739 3.5 2.74022 3.55268 2.64645 3.64645C2.55268 3.74022 2.5 3.86739 2.5 4ZM9.5 6C9.5 5.86739 9.44732 5.74022 9.35355 5.64645C9.25979 5.55268 9.13261 5.5 9 5.5H3C2.86739 5.5 2.74022 5.55268 2.64645 5.64645C2.55268 5.74022 2.5 5.86739 2.5 6C2.5 6.13261 2.55268 6.25979 2.64645 6.35355C2.74022 6.44732 2.86739 6.5 3 6.5H9C9.13261 6.5 9.25979 6.44732 9.35355 6.35355C9.44732 6.25979 9.5 6.13261 9.5 6Z" fill="#522583"/>
</g>
<defs>
<clipPath id="clip0_710_2086">
<rect width="12" height="12" fill="white"/>
</clipPath>
</defs>
</svg>
