<svg width="12" height="12" viewBox="0 0 12 12" fill="none" xmlns="http://www.w3.org/2000/svg">
<g clip-path="url(#clip0_710_1904)">
<path d="M10.9287 10.7143C11.1984 10.7143 11.4321 10.6253 11.6308 10.4494L8.23105 7.0495C8.14948 7.10791 8.07041 7.16471 7.99573 7.21872C7.7413 7.40617 7.53481 7.55245 7.37625 7.65726C7.2177 7.76232 7.00677 7.8694 6.74345 7.97872C6.47996 8.08818 6.23449 8.14273 6.00678 8.14273H6.00011H5.99345C5.76571 8.14273 5.52024 8.0882 5.25677 7.97872C4.9933 7.8694 4.78237 7.76232 4.62398 7.65726C4.46544 7.55245 4.25905 7.40619 4.00449 7.21872C3.93356 7.16671 3.85488 7.10965 3.76983 7.04858L0.369385 10.4494C0.568058 10.6253 0.801938 10.7143 1.07166 10.7143H10.9287Z" fill="#522583"/>
<path d="M0.676411 4.90859C0.422008 4.73898 0.196407 4.54473 0 4.32593V9.49863L2.99656 6.50207C2.39708 6.08355 1.62468 5.553 0.676411 4.90859Z" fill="#522583"/>
<path d="M11.3304 4.90859C10.4183 5.52594 9.64305 6.0574 9.00464 6.50327L12 9.49876V4.32593C11.808 4.54033 11.5848 4.73445 11.3304 4.90859Z" fill="#522583"/>
<path d="M10.9288 1.28577H1.07185C0.727968 1.28577 0.463586 1.40189 0.278378 1.6339C0.0930163 1.86601 0.000488281 2.1563 0.000488281 2.50443C0.000488281 2.78563 0.123278 3.09031 0.368749 3.41857C0.614219 3.7467 0.87542 4.00444 1.15222 4.19192C1.30396 4.29913 1.76157 4.61726 2.52504 5.14619C2.93718 5.4318 3.29559 5.68073 3.60359 5.89555C3.86612 6.07847 4.09253 6.23688 4.27946 6.36834C4.30092 6.38339 4.33467 6.40753 4.37946 6.43956C4.42772 6.47422 4.48879 6.51821 4.56412 6.57261C4.7092 6.67754 4.82973 6.76235 4.92572 6.82715C5.02158 6.89196 5.13772 6.96436 5.27398 7.04475C5.41012 7.12503 5.53853 7.18541 5.65906 7.22556C5.7796 7.26569 5.89119 7.28582 5.99385 7.28582H6.00052H6.00719C6.10982 7.28582 6.22144 7.26569 6.34201 7.22556C6.46251 7.18541 6.59081 7.12517 6.72706 7.04475C6.86319 6.96436 6.97918 6.89181 7.07535 6.82715C7.17134 6.76235 7.29186 6.67756 7.43696 6.57261C7.51215 6.51821 7.57321 6.4742 7.62147 6.43967C7.66629 6.40751 7.70001 6.38352 7.7216 6.36834C7.86723 6.26701 8.09416 6.10925 8.39926 5.8974C8.95443 5.51167 9.77204 4.94393 10.8555 4.19192C11.1814 3.96431 11.4536 3.68964 11.6724 3.36831C11.8909 3.04698 12.0004 2.70992 12.0004 2.35724C12.0004 2.06257 11.8942 1.81043 11.6823 1.60043C11.4702 1.39069 11.219 1.28577 10.9288 1.28577Z" fill="#522583"/>
</g>
<defs>
<clipPath id="clip0_710_1904">
<rect width="12" height="12" fill="white"/>
</clipPath>
</defs>
</svg>
