<svg width="31" height="31" viewBox="0 0 31 31" fill="none" xmlns="http://www.w3.org/2000/svg">
<g clip-path="url(#clip0_710_1966)">
<path d="M27.125 0H3.875C1.73794 0 0 1.73794 0 3.875V27.125C0 29.2621 1.73794 31 3.875 31H27.125C29.2621 31 31 29.2621 31 27.125V3.875C31 1.73794 29.2621 0 27.125 0Z" fill="#1976D2"/>
<path d="M26.1563 15.4999H21.3125V11.6249C21.3125 10.5554 22.1805 10.6562 23.25 10.6562H25.1875V5.81244H21.3125C18.1021 5.81244 15.5 8.4145 15.5 11.6249V15.4999H11.625V20.3437H15.5V30.9999H21.3125V20.3437H24.2188L26.1563 15.4999Z" fill="#FAFAFA"/>
</g>
<defs>
<clipPath id="clip0_710_1966">
<rect width="31" height="31" fill="white"/>
</clipPath>
</defs>
</svg>
