<svg width="12" height="12" viewBox="0 0 12 12" fill="none" xmlns="http://www.w3.org/2000/svg">
<g clip-path="url(#clip0_710_2044)">
<path d="M8.3626 3.12656C9.22597 3.12656 9.92588 2.42666 9.92588 1.56328C9.92588 0.699905 9.22597 0 8.3626 0C7.49922 0 6.79932 0.699905 6.79932 1.56328C6.79932 2.42666 7.49922 3.12656 8.3626 3.12656Z" fill="#522583"/>
<path d="M11.3884 8.04841L10.4977 4.55388C10.3384 3.93044 9.77821 3.49451 9.13603 3.49451H7.58915C6.94696 3.49451 6.38446 3.93044 6.22743 4.55388L5.33681 8.04841C5.20556 8.56638 5.59696 9.07029 6.13134 9.07029H6.79696V11.2969C6.79696 11.6859 7.11103 12 7.50009 12H9.22274C9.61181 12 9.92587 11.6859 9.92587 11.2969V9.07029H10.5938C11.1282 9.07029 11.5196 8.56638 11.3884 8.04841Z" fill="#522583"/>
<path d="M3.48047 3.49683H1.99219C1.21641 3.49683 0.585938 4.12729 0.585938 4.90308V7.42964C0.585938 7.77886 0.839063 8.06714 1.17188 8.12339V11.2968C1.17188 11.6859 1.48594 12 1.875 12H3.59766C3.98672 12 4.30078 11.6859 4.30078 11.2968V8.12339C4.63359 8.06714 4.88672 7.77886 4.88672 7.42964V4.90308C4.88672 4.12495 4.25859 3.49683 3.48047 3.49683Z" fill="#522583"/>
<path d="M2.7376 3.12656C3.60097 3.12656 4.30088 2.42666 4.30088 1.56328C4.30088 0.699905 3.60097 0 2.7376 0C1.87422 0 1.17432 0.699905 1.17432 1.56328C1.17432 2.42666 1.87422 3.12656 2.7376 3.12656Z" fill="#522583"/>
</g>
<defs>
<clipPath id="clip0_710_2044">
<rect width="12" height="12" fill="white"/>
</clipPath>
</defs>
</svg>
