<svg width="12" height="12" viewBox="0 0 12 12" fill="none" xmlns="http://www.w3.org/2000/svg">
<g clip-path="url(#clip0_710_2886)">
<path d="M2.30004 11.5C2.15004 11.175 1.90004 10.8 1.55004 10.475C1.22504 10.15 0.850036 9.875 0.525036 9.725C0.350036 9.65 0.225036 9.625 0.150036 9.625C0.100036 9.625 0.0500365 9.625 0.0500365 9.65C3.64762e-05 9.7 3.6478e-05 9.85 0.125036 10.125C0.275036 10.45 0.525036 10.825 0.875036 11.15C1.22504 11.475 1.57504 11.75 1.90004 11.9C2.17504 12.025 2.35004 12 2.37504 11.975C2.40004 11.925 2.40004 11.775 2.30004 11.5Z" fill="#522583"/>
<path d="M10.3251 8.12498L5.95015 3.72498L4.27515 5.39998L8.65015 9.77498L8.75015 8.64998C8.77515 8.39998 8.97515 8.22498 9.20015 8.19998L10.3251 8.12498Z" fill="#522583"/>
<path d="M8.64995 5.67504L11.975 2.35004C12.075 2.25004 11.925 1.57504 11.175 0.825035C10.425 0.0750354 9.74995 -0.0999646 9.64995 0.0250354L6.32495 3.35004L8.64995 5.67504Z" fill="#522583"/>
<path d="M2.87515 11.475L6.22515 8.12505L3.90015 5.80005L0.525146 9.12505C0.575146 9.15005 0.650147 9.17505 0.725147 9.20005C1.12515 9.37505 1.55015 9.67505 1.92515 10.05C2.30015 10.425 2.62515 10.875 2.77515 11.25C2.82515 11.35 2.85015 11.4 2.87515 11.475Z" fill="#522583"/>
</g>
<defs>
<clipPath id="clip0_710_2886">
<rect width="12" height="12" fill="white"/>
</clipPath>
</defs>
</svg>
