<svg width="17" height="17" viewBox="0 0 17 17" fill="none" xmlns="http://www.w3.org/2000/svg">
<path d="M14.6875 14.8999V10.2119C14.6875 7.90795 14.1915 6.14795 11.5035 6.14795C10.2075 6.14795 9.34353 6.85195 8.99153 7.52395H8.95953V6.35595H6.41553V14.8999H9.07153V10.6599C9.07153 9.53995 9.27953 8.46795 10.6555 8.46795C12.0155 8.46795 12.0315 9.73195 12.0315 10.7239V14.8839H14.6875V14.8999Z" fill="white"/>
<path d="M2.09546 6.35596H4.75146V14.9H2.09546V6.35596Z" fill="white"/>
<path d="M3.42345 2.09998C2.57545 2.09998 1.88745 2.78798 1.88745 3.63598C1.88745 4.48398 2.57545 5.18798 3.42345 5.18798C4.27145 5.18798 4.95945 4.48398 4.95945 3.63598C4.95945 2.78798 4.27145 2.09998 3.42345 2.09998Z" fill="white"/>
</svg>
