<svg width="12" height="12" viewBox="0 0 12 12" fill="none" xmlns="http://www.w3.org/2000/svg">
<g clip-path="url(#clip0_710_2068)">
<path d="M10.7071 4.89532H6.18829C5.47537 4.89532 4.89539 5.47531 4.89539 6.18823V8.64331L3.72461 9.47955C3.63223 9.54547 3.57739 9.65204 3.57739 9.76556C3.57739 9.87918 3.63223 9.98575 3.72461 10.0517L4.90948 10.898C5.00204 11.5207 5.54028 12 6.18829 12H10.7071C11.42 12 12 11.42 12 10.707V6.18823C12 5.47531 11.42 4.89532 10.7071 4.89532ZM9.18765 9.83533C9.1048 9.83533 9.0408 9.80905 9.02203 9.73746L8.87885 9.23657H8.01642L7.87341 9.73746C7.85455 9.80905 7.79056 9.83533 7.7077 9.83533C7.57587 9.83533 7.3989 9.75256 7.3989 9.63208C7.3989 9.62448 7.40265 9.60947 7.4064 9.59436L8.13324 7.22571C8.16711 7.11273 8.30646 7.05991 8.4458 7.05991C8.5889 7.05991 8.72824 7.11273 8.76212 7.22571L9.48895 9.59436C9.49271 9.60947 9.49646 9.62073 9.49646 9.63208C9.49646 9.74872 9.31949 9.83533 9.18765 9.83533Z" fill="#522583"/>
<path d="M8.11816 8.85239H8.7735L8.44574 7.69635L8.11816 8.85239Z" fill="#522583"/>
<path d="M4.19229 6.18823C4.19229 5.71619 4.35736 5.28223 4.63229 4.94009C4.2312 4.94009 3.85904 4.81458 3.55225 4.60135C3.24545 4.81467 2.87329 4.94009 2.47211 4.94009C2.3627 4.94009 2.2739 4.85129 2.2739 4.74179C2.2739 4.63229 2.3627 4.54358 2.47211 4.54358C2.75308 4.54358 3.01602 4.46576 3.24115 4.33099C2.9696 4.03793 2.78906 3.65955 2.74539 3.24078H2.4722C2.3627 3.24078 2.2739 3.15207 2.2739 3.04257C2.2739 2.93307 2.3627 2.84427 2.4722 2.84427H3.35413V2.36288C3.35413 2.2533 3.44284 2.16458 3.55234 2.16458C3.66183 2.16458 3.75055 2.2533 3.75055 2.36288V2.84427H4.63248C4.74197 2.84427 4.83078 2.93307 4.83078 3.04257C4.83078 3.15207 4.74197 3.24078 4.63248 3.24078H4.35928C4.31561 3.65955 4.13507 4.03793 3.86353 4.33099C4.08856 4.46594 4.35159 4.54358 4.63248 4.54358C4.73712 4.54358 4.82263 4.62469 4.83005 4.72751C5.18665 4.39572 5.66409 4.1922 6.18842 4.1922H7.10468V3.35669L8.27545 2.52045C8.36774 2.45453 8.42258 2.34796 8.42258 2.23444C8.42258 2.12082 8.36774 2.01425 8.27545 1.94833L7.09058 1.10202C6.99792 0.479279 6.45969 0 5.81168 0H1.293C0.579987 0 0 0.579987 0 1.29291V5.81177C0 6.52469 0.579987 7.10468 1.293 7.10468H4.19229V6.18823Z" fill="#522583"/>
<path d="M3.55234 4.08328C3.76932 3.85815 3.91663 3.56583 3.95975 3.24091H3.14502C3.18814 3.56583 3.33554 3.85815 3.55234 4.08328Z" fill="#522583"/>
</g>
<defs>
<clipPath id="clip0_710_2068">
<rect width="12" height="12" fill="white"/>
</clipPath>
</defs>
</svg>
