<svg width="31" height="31" viewBox="0 0 31 31" fill="none" xmlns="http://www.w3.org/2000/svg">
<g clip-path="url(#clip0_710_1958)">
<path d="M26.7727 0H4.22727C1.89261 0 0 1.89261 0 4.22727V26.7727C0 29.1074 1.89261 31 4.22727 31H26.7727C29.1074 31 31 29.1074 31 26.7727V4.22727C31 1.89261 29.1074 0 26.7727 0Z" fill="#0077B5"/>
<path d="M11.1671 8.45448C11.1671 8.97703 11.0122 9.48784 10.7219 9.92233C10.4316 10.3568 10.0189 10.6954 9.53617 10.8954C9.0534 11.0954 8.52217 11.1477 8.00967 11.0458C7.49716 10.9438 7.02639 10.6922 6.6569 10.3227C6.2874 9.9532 6.03577 9.48243 5.93382 8.96992C5.83188 8.45741 5.8842 7.92619 6.08417 7.44342C6.28414 6.96065 6.62278 6.54802 7.05726 6.2577C7.49174 5.96739 8.00256 5.81244 8.5251 5.81244C9.22582 5.81244 9.89783 6.0908 10.3933 6.58628C10.8888 7.08176 11.1671 7.75377 11.1671 8.45448Z" fill="white"/>
<path d="M10.5683 12.8579V24.5304C10.5687 24.6165 10.5522 24.7019 10.5195 24.7816C10.4869 24.8613 10.4388 24.9337 10.3781 24.9948C10.3174 25.0558 10.2452 25.1043 10.1657 25.1373C10.0862 25.1704 10.0009 25.1874 9.9148 25.1874H7.13008C7.04397 25.1876 6.95867 25.1709 6.87906 25.138C6.79946 25.1052 6.72714 25.0569 6.66625 24.996C6.60536 24.9351 6.55711 24.8628 6.52426 24.7832C6.49141 24.7036 6.47462 24.6183 6.47486 24.5322V12.8579C6.47486 12.6841 6.54389 12.5174 6.66677 12.3945C6.78965 12.2717 6.95631 12.2026 7.13008 12.2026H9.9148C10.0883 12.2031 10.2545 12.2723 10.377 12.3952C10.4995 12.518 10.5683 12.6844 10.5683 12.8579Z" fill="white"/>
<path d="M25.1244 18.9346V24.585C25.1246 24.6642 25.1092 24.7427 25.079 24.8158C25.0488 24.889 25.0044 24.9555 24.9484 25.0115C24.8925 25.0675 24.826 25.1119 24.7528 25.1421C24.6796 25.1722 24.6011 25.1877 24.522 25.1874H21.5277C21.4485 25.1877 21.37 25.1722 21.2969 25.1421C21.2237 25.1119 21.1572 25.0675 21.1012 25.0115C21.0452 24.9555 21.0008 24.889 20.9706 24.8158C20.9405 24.7427 20.925 24.6642 20.9253 24.585V19.109C20.9253 18.2917 21.1648 15.5299 18.7887 15.5299C16.9481 15.5299 16.5729 17.4198 16.499 18.2688V24.585C16.499 24.7433 16.4367 24.8952 16.3257 25.0079C16.2146 25.1206 16.0636 25.1851 15.9054 25.1874H13.0132C12.9342 25.1874 12.856 25.1718 12.783 25.1415C12.71 25.1113 12.6437 25.0669 12.5879 25.0109C12.5321 24.9549 12.4879 24.8885 12.4578 24.8154C12.4277 24.7424 12.4124 24.6641 12.4126 24.585V12.8068C12.4124 12.7278 12.4277 12.6495 12.4578 12.5764C12.4879 12.5033 12.5321 12.4369 12.5879 12.381C12.6437 12.325 12.71 12.2806 12.783 12.2503C12.856 12.22 12.9342 12.2044 13.0132 12.2044H15.9054C16.0651 12.2044 16.2184 12.2679 16.3313 12.3809C16.4443 12.4938 16.5078 12.647 16.5078 12.8068V13.8249C17.1912 12.7998 18.204 12.0089 20.3652 12.0089C25.1525 12.0089 25.1244 16.4793 25.1244 18.9346Z" fill="white"/>
</g>
<defs>
<clipPath id="clip0_710_1958">
<rect width="31" height="31" fill="white"/>
</clipPath>
</defs>
</svg>
