<svg width="16" height="16" viewBox="0 0 16 16" fill="none" xmlns="http://www.w3.org/2000/svg">
<g clip-path="url(#clip0_710_2423)">
<path d="M11.1529 8.8C10.3529 10.4471 8.65879 11.6235 6.68232 11.6235C3.99996 11.6235 1.74114 9.41176 1.74114 6.68235C1.74114 4 3.90585 1.74117 6.68232 1.74117C7.99996 1.74117 9.27055 2.25882 10.2117 3.2C10.7764 3.7647 11.1529 4.42352 11.3882 5.12941L12.4706 4.04705C12.1411 3.34117 11.7176 2.72941 11.1529 2.1647C9.92938 0.988231 8.32938 0.282349 6.63526 0.282349C3.1529 0.329407 0.282316 3.2 0.282316 6.68235C0.282316 10.2118 3.1529 13.0353 6.63526 13.0353C9.92937 13.0353 12.5647 10.5412 12.9411 7.48235C12.2353 8.14117 11.9529 8.8 11.1529 8.8Z" fill="#75519C"/>
<path d="M15.153 15.1529C14.4471 15.8588 13.2706 15.8588 12.5177 15.1529L10.353 12.9882C10.8706 12.6588 11.3882 12.2823 11.8118 11.8588C12.2824 11.3882 12.6588 10.9176 12.9882 10.3529L15.153 12.5176C15.8588 13.2235 15.9059 14.4 15.153 15.1529Z" fill="#75519C"/>
<path d="M14.7293 4.42353L13.8352 5.31765L11.3882 7.71765C11.1999 7.90589 10.9176 7.90589 10.7293 7.71765L9.17641 6.16471L6.72935 8.61177C6.54111 8.80001 6.25876 8.80001 6.07052 8.61177L4.98817 7.52942L3.43523 9.08236C3.24699 8.84706 3.05876 8.51765 2.91758 8.2353L4.65876 6.58824C4.84699 6.40001 5.12935 6.40001 5.31758 6.58824L6.39993 7.67059L8.84699 5.22354C9.03523 5.0353 9.31758 5.0353 9.50582 5.22354L10.6352 6.35295L11.0588 6.77648L13.5529 4.28236L14.0705 3.76471C14.2588 3.57648 14.5411 3.57648 14.7293 3.76471C14.9176 3.95295 14.9176 4.2353 14.7293 4.42353Z" fill="#75519C"/>
</g>
<defs>
<clipPath id="clip0_710_2423">
<rect width="16" height="16" fill="white"/>
</clipPath>
</defs>
</svg>
