<svg width="12" height="12" viewBox="0 0 12 12" fill="none" xmlns="http://www.w3.org/2000/svg">
<g clip-path="url(#clip0_710_2830)">
<path fill-rule="evenodd" clip-rule="evenodd" d="M6 0.75C4.13602 0.75 2.625 2.26104 2.625 4.125C2.625 5.98898 4.13602 7.5 6 7.5C7.86398 7.5 9.375 5.98898 9.375 4.125C9.375 2.26104 7.86398 0.75 6 0.75ZM6 2.0625C6.20711 2.0625 6.375 2.23039 6.375 2.4375V3.94477L7.17176 4.58216C7.3335 4.71154 7.35971 4.94753 7.23034 5.10926C7.10096 5.271 6.86497 5.29721 6.70324 5.16784L5.76574 4.41784C5.67679 4.34666 5.625 4.23892 5.625 4.125V2.4375C5.625 2.23039 5.79289 2.0625 6 2.0625Z" fill="#522583"/>
<path fill-rule="evenodd" clip-rule="evenodd" d="M2.25 8.25C1.42157 8.25 0.75 8.92159 0.75 9.75C0.75 10.5784 1.42157 11.25 2.25 11.25H9.75C10.5784 11.25 11.25 10.5784 11.25 9.75C11.25 8.92159 10.5784 8.25 9.75 8.25H2.25ZM1.875 9.75C1.875 9.54289 2.04289 9.375 2.25 9.375H4.5C4.70711 9.375 4.875 9.54289 4.875 9.75C4.875 9.95711 4.70711 10.125 4.5 10.125H2.25C2.04289 10.125 1.875 9.95711 1.875 9.75Z" fill="#522583"/>
</g>
<defs>
<clipPath id="clip0_710_2830">
<rect width="12" height="12" fill="white"/>
</clipPath>
</defs>
</svg>
