<svg width="12" height="12" viewBox="0 0 12 12" fill="none" xmlns="http://www.w3.org/2000/svg">
<g clip-path="url(#clip0_710_1915)">
<path d="M10.3395 8.35201C9.61454 7.73199 8.87885 7.35642 8.16283 7.9755L7.73528 8.34967C7.42246 8.62127 6.84084 9.89035 4.5921 7.3035C2.34383 4.71993 3.68174 4.31767 3.99503 4.0484L4.42492 3.67376C5.1372 3.05328 4.86839 2.27216 4.35468 1.4681L4.04467 0.98108C3.52861 0.178895 2.96666 -0.347934 2.25251 0.271617L1.86664 0.608788C1.55101 0.838719 0.668746 1.58611 0.454736 3.00598C0.197175 4.70963 1.00966 6.66053 2.87113 8.8011C4.73025 10.9426 6.5505 12.0183 8.27476 11.9995C9.70773 11.9841 10.5731 11.2151 10.8438 10.9356L11.2311 10.5979C11.9434 9.97886 11.5008 9.34853 10.7754 8.72711L10.3395 8.35201Z" fill="#522583"/>
</g>
<defs>
<clipPath id="clip0_710_1915">
<rect width="12" height="12" fill="white"/>
</clipPath>
</defs>
</svg>
