<svg width="12" height="12" viewBox="0 0 12 12" fill="none" xmlns="http://www.w3.org/2000/svg">
<g clip-path="url(#clip0_710_1893)">
<path d="M11.985 2.34194L11.5504 4.01809C11.535 4.07772 11.508 4.13373 11.471 4.18291C11.4339 4.23209 11.3875 4.27348 11.3344 4.3047C11.2813 4.33592 11.2226 4.35636 11.1616 4.36486C11.1006 4.37335 11.0386 4.36972 10.979 4.35419L9.25313 3.90669C9.19322 3.89154 9.1369 3.8647 9.08741 3.8277C9.03791 3.79071 8.99622 3.74429 8.96473 3.69112C8.93324 3.63795 8.91257 3.57908 8.90392 3.5179C8.89527 3.45671 8.8988 3.39442 8.9143 3.3346C8.92981 3.27479 8.957 3.21863 8.99429 3.16936C9.03158 3.12009 9.07825 3.07867 9.13161 3.0475C9.18496 3.01633 9.24395 2.99602 9.30519 2.98774C9.36643 2.97945 9.42869 2.98335 9.48842 2.99922L10.0913 3.15552C8.84595 1.36274 6.53222 0.573039 4.42782 1.27291C3.69887 1.51262 3.03567 1.91858 2.4906 2.45869C1.94554 2.99881 1.53355 3.65828 1.28719 4.38501C1.24679 4.50258 1.16133 4.59929 1.04962 4.65386C0.937913 4.70843 0.809102 4.71639 0.691526 4.67598C0.573951 4.63558 0.477241 4.55012 0.422672 4.43842C0.368103 4.32671 0.360146 4.1979 0.40055 4.08032C0.692315 3.23399 1.17059 2.46407 1.8 1.82748C2.45209 1.16831 3.25135 0.673358 4.13203 0.383336C5.36227 -0.0256851 6.69274 -0.0196317 7.9192 0.400566C9.14566 0.820764 10.2003 1.63188 10.9212 2.70939L11.0775 2.10677C11.1087 1.98642 11.1864 1.8834 11.2936 1.82037C11.4007 1.75734 11.5286 1.73946 11.6489 1.77066C11.7692 1.80186 11.8723 1.87959 11.9353 1.98675C11.9983 2.0939 12.0162 2.22171 11.985 2.34205V2.34194ZM11.3086 7.324C11.2504 7.304 11.1888 7.29566 11.1274 7.29946C11.0659 7.30326 11.0058 7.31913 10.9505 7.34615C10.8952 7.37318 10.8458 7.41083 10.805 7.45696C10.7642 7.5031 10.733 7.5568 10.713 7.61502C10.4666 8.34175 10.0546 9.00122 9.50957 9.54134C8.9645 10.0814 8.3013 10.4874 7.57235 10.7271C5.46797 11.427 3.15422 10.6373 1.90896 8.84451L2.51182 9.00081C2.5717 9.01713 2.63421 9.02141 2.69575 9.01338C2.75729 9.00535 2.81662 8.98518 2.8703 8.95405C2.92398 8.92291 2.97095 8.88142 3.00847 8.832C3.04599 8.78257 3.07333 8.72618 3.08889 8.6661C3.10445 8.60603 3.10793 8.54346 3.09912 8.48203C3.09031 8.4206 3.06939 8.36153 3.03757 8.30825C3.00576 8.25497 2.96368 8.20853 2.91378 8.17164C2.86388 8.13475 2.80715 8.10813 2.74688 8.09334L1.02094 7.64584C0.900602 7.61464 0.772798 7.63253 0.665644 7.69556C0.558489 7.75858 0.480761 7.8616 0.449558 7.98194L0.0150029 9.65809C-0.000446366 9.71768 -0.0040078 9.77973 0.00452198 9.84069C0.0130518 9.90165 0.0335057 9.96034 0.064716 10.0134C0.0959263 10.0665 0.137282 10.1129 0.186421 10.1499C0.23556 10.187 0.291521 10.214 0.351108 10.2295C0.410696 10.2449 0.472742 10.2485 0.533706 10.24C0.59467 10.2314 0.653356 10.211 0.706415 10.1798C0.759474 10.1486 0.805866 10.1072 0.842943 10.0581C0.880019 10.0089 0.907054 9.95297 0.922503 9.89338L1.07876 9.29076C1.79999 10.3679 2.85467 11.1788 4.08103 11.5989C5.30739 12.0191 6.63772 12.0253 7.86797 11.6167C8.74866 11.3267 9.54791 10.8317 10.2 10.1725C10.8294 9.53594 11.3077 8.76598 11.5995 7.91962C11.6399 7.80206 11.6319 7.67327 11.5774 7.56158C11.5228 7.44988 11.4261 7.36442 11.3086 7.324Z" fill="#522583"/>
</g>
<defs>
<clipPath id="clip0_710_1893">
<rect width="12" height="12" fill="white"/>
</clipPath>
</defs>
</svg>
