<svg width="17" height="17" viewBox="0 0 17 17" fill="none" xmlns="http://www.w3.org/2000/svg">
<g clip-path="url(#clip0_710_1949)">
<path d="M6.36514 7.96501C6.22325 7.96501 6.08717 7.90864 5.98683 7.80831C5.8865 7.70798 5.83014 7.5719 5.83014 7.43001V5.83001C5.82293 5.75574 5.83134 5.68079 5.85482 5.60997C5.87831 5.53915 5.91634 5.47402 5.96649 5.41877C6.01664 5.36352 6.07779 5.31938 6.14601 5.28917C6.21424 5.25895 6.28802 5.24335 6.36264 5.24335C6.43725 5.24335 6.51104 5.25895 6.57926 5.28917C6.64749 5.31938 6.70864 5.36352 6.75878 5.41877C6.80893 5.47402 6.84697 5.53915 6.87045 5.60997C6.89393 5.68079 6.90234 5.75574 6.89514 5.83001V7.43001C6.89514 7.57104 6.83946 7.70636 6.74021 7.80655C6.64096 7.90674 6.50616 7.96369 6.36514 7.96501Z" fill="white"/>
<path d="M8.50009 7.96499C8.3582 7.96499 8.22212 7.90862 8.12179 7.80829C8.02145 7.70796 7.96509 7.57188 7.96509 7.42999V5.29999C7.97793 5.16766 8.03957 5.04486 8.13801 4.9555C8.23646 4.86615 8.36464 4.81665 8.49759 4.81665C8.63053 4.81665 8.75872 4.86615 8.85716 4.9555C8.9556 5.04486 9.01725 5.16766 9.03009 5.29999V7.43499C9.02878 7.57515 8.97253 7.7092 8.87341 7.80832C8.7743 7.90743 8.64025 7.96369 8.50009 7.96499Z" fill="white"/>
<path d="M10.6349 7.96498C10.493 7.96498 10.3569 7.90861 10.2566 7.80828C10.1563 7.70795 10.0999 7.57187 10.0999 7.42998V4.23498C10.0927 4.16071 10.1011 4.08576 10.1246 4.01494C10.1481 3.94412 10.1861 3.87899 10.2363 3.82374C10.2864 3.76849 10.3476 3.72435 10.4158 3.69413C10.484 3.66392 10.5578 3.64832 10.6324 3.64832C10.707 3.64832 10.7808 3.66392 10.849 3.69413C10.9173 3.72435 10.9784 3.76849 11.0286 3.82374C11.0787 3.87899 11.1167 3.94412 11.1402 4.01494C11.1637 4.08576 11.1721 4.16071 11.1649 4.23498V7.43498C11.1636 7.57514 11.1074 7.70919 11.0082 7.8083C10.9091 7.90741 10.7751 7.96367 10.6349 7.96498Z" fill="white"/>
<path d="M12.7651 16.5H4.2351C3.66886 16.5 3.12582 16.2751 2.72543 15.8747C2.32504 15.4743 2.1001 14.9312 2.1001 14.365V4.7C2.09949 4.30872 2.18522 3.92213 2.35115 3.56779C2.51709 3.21344 2.75916 2.90006 3.0601 2.65L4.9001 1.12C5.37886 0.721033 5.9819 0.501746 6.6051 0.5L12.7651 0.5C13.3313 0.5 13.8744 0.724937 14.2748 1.12533C14.6752 1.52572 14.9001 2.06876 14.9001 2.635V14.365C14.9001 14.9312 14.6752 15.4743 14.2748 15.8747C13.8744 16.2751 13.3313 16.5 12.7651 16.5ZM6.6051 1.565C6.23934 1.57077 5.88653 1.70131 5.6051 1.935L3.7401 3.47C3.55967 3.62009 3.41458 3.80815 3.31518 4.02076C3.21579 4.23337 3.16455 4.4653 3.1651 4.7V14.365C3.16642 14.647 3.27904 14.9172 3.47848 15.1166C3.67793 15.3161 3.94805 15.4287 4.2301 15.43H12.7651C13.0472 15.4287 13.3173 15.3161 13.5167 15.1166C13.7162 14.9172 13.8288 14.647 13.8301 14.365V2.635C13.8288 2.35295 13.7162 2.08283 13.5167 1.88338C13.3173 1.68394 13.0472 1.57132 12.7651 1.57L6.6051 1.565Z" fill="white"/>
<path d="M11.7 13.3H5.30004C5.22577 13.3072 5.15082 13.2988 5.08 13.2753C5.00918 13.2518 4.94405 13.2138 4.8888 13.1636C4.83356 13.1135 4.78941 13.0523 4.7592 12.9841C4.72899 12.9159 4.71338 12.8421 4.71338 12.7675C4.71338 12.6929 4.72899 12.6191 4.7592 12.5509C4.78941 12.4826 4.83356 12.4215 4.8888 12.3713C4.94405 12.3212 5.00918 12.2832 5.08 12.2597C5.15082 12.2362 5.22577 12.2278 5.30004 12.235H11.7C11.7743 12.2278 11.8493 12.2362 11.9201 12.2597C11.9909 12.2832 12.056 12.3212 12.1113 12.3713C12.1665 12.4215 12.2107 12.4826 12.2409 12.5509C12.2711 12.6191 12.2867 12.6929 12.2867 12.7675C12.2867 12.8421 12.2711 12.9159 12.2409 12.9841C12.2107 13.0523 12.1665 13.1135 12.1113 13.1636C12.056 13.2138 11.9909 13.2518 11.9201 13.2753C11.8493 13.2988 11.7743 13.3072 11.7 13.3Z" fill="white"/>
<path d="M11.7 10.635H5.29999C5.16766 10.6222 5.04486 10.5605 4.9555 10.4621C4.86615 10.3636 4.81665 10.2355 4.81665 10.1025C4.81665 9.96956 4.86615 9.84137 4.9555 9.74293C5.04486 9.64449 5.16766 9.58284 5.29999 9.57H11.7C11.7743 9.5628 11.8492 9.57121 11.92 9.59469C11.9908 9.61817 12.056 9.65621 12.1112 9.70636C12.1665 9.75651 12.2106 9.81766 12.2408 9.88588C12.271 9.9541 12.2867 10.0279 12.2867 10.1025C12.2867 10.1771 12.271 10.2509 12.2408 10.3191C12.2106 10.3874 12.1665 10.4485 12.1112 10.4987C12.056 10.5488 11.9908 10.5868 11.92 10.6103C11.8492 10.6338 11.7743 10.6422 11.7 10.635Z" fill="white"/>
</g>
<defs>
<clipPath id="clip0_710_1949">
<rect width="16" height="16" fill="white" transform="translate(0.5 0.5)"/>
</clipPath>
</defs>
</svg>
