<svg width="18" height="19" viewBox="0 0 18 19" fill="none" xmlns="http://www.w3.org/2000/svg">
<path d="M15.0244 5.16313L11.6494 1.78813C11.5968 1.736 11.5345 1.69476 11.4659 1.66676C11.3974 1.63877 11.324 1.62458 11.25 1.62501H4.5C4.05245 1.62501 3.62322 1.8028 3.30676 2.11927C2.99029 2.43573 2.8125 2.86496 2.8125 3.31251V15.6875C2.8125 16.1351 2.99029 16.5643 3.30676 16.8808C3.62322 17.1972 4.05245 17.375 4.5 17.375H13.5C13.9476 17.375 14.3768 17.1972 14.6932 16.8808C15.0097 16.5643 15.1875 16.1351 15.1875 15.6875V5.56251C15.1879 5.48848 15.1737 5.4151 15.1457 5.34656C15.1178 5.27803 15.0765 5.21569 15.0244 5.16313ZM11.8125 3.54313L13.2694 5.00001H12.375C12.2258 5.00001 12.0827 4.94075 11.9773 4.83526C11.8718 4.72977 11.8125 4.58669 11.8125 4.43751V3.54313ZM13.5 16.25H4.5C4.35082 16.25 4.20774 16.1907 4.10225 16.0853C3.99676 15.9798 3.9375 15.8367 3.9375 15.6875V3.31251C3.9375 3.16332 3.99676 3.02025 4.10225 2.91476C4.20774 2.80927 4.35082 2.75001 4.5 2.75001H10.6875V4.43751C10.6875 4.88506 10.8653 5.31428 11.1818 5.63075C11.4982 5.94722 11.9274 6.12501 12.375 6.12501H14.0625V15.6875C14.0625 15.8367 14.0032 15.9798 13.8977 16.0853C13.7923 16.1907 13.6492 16.25 13.5 16.25Z" fill="white"/>
<path d="M7.3125 7.8125C7.64626 7.8125 7.97252 7.71353 8.25002 7.52811C8.52753 7.34268 8.74382 7.07913 8.87155 6.77078C8.99927 6.46243 9.03269 6.12313 8.96758 5.79579C8.90246 5.46844 8.74174 5.16776 8.50574 4.93176C8.26974 4.69576 7.96906 4.53504 7.64171 4.46993C7.31437 4.40481 6.97507 4.43823 6.66672 4.56595C6.35837 4.69368 6.09482 4.90997 5.9094 5.18748C5.72397 5.46498 5.625 5.79124 5.625 6.125C5.625 6.57255 5.80279 7.00178 6.11926 7.31824C6.43572 7.63471 6.86495 7.8125 7.3125 7.8125ZM7.3125 5.5625C7.42375 5.5625 7.53251 5.59549 7.62501 5.6573C7.71751 5.71911 7.78961 5.80696 7.83218 5.90974C7.87476 6.01252 7.8859 6.12562 7.86419 6.23474C7.84249 6.34385 7.78891 6.44408 7.71025 6.52275C7.63158 6.60142 7.53135 6.65499 7.42224 6.67669C7.31312 6.6984 7.20002 6.68726 7.09724 6.64468C6.99446 6.60211 6.90661 6.53001 6.8448 6.43751C6.78299 6.34501 6.75 6.23625 6.75 6.125C6.75 5.97582 6.80926 5.83274 6.91475 5.72725C7.02024 5.62176 7.16332 5.5625 7.3125 5.5625Z" fill="white"/>
<path d="M5.625 11.75H9C9.14918 11.75 9.29226 11.6907 9.39775 11.5852C9.50324 11.4798 9.5625 11.3367 9.5625 11.1875V10.0625C9.5625 9.61495 9.38471 9.18572 9.06824 8.86926C8.75178 8.55279 8.32255 8.375 7.875 8.375H6.75C6.30245 8.375 5.87322 8.55279 5.55676 8.86926C5.24029 9.18572 5.0625 9.61495 5.0625 10.0625V11.1875C5.0625 11.3367 5.12176 11.4798 5.22725 11.5852C5.33274 11.6907 5.47582 11.75 5.625 11.75ZM6.1875 10.0625C6.1875 9.91332 6.24676 9.77024 6.35225 9.66475C6.45774 9.55926 6.60082 9.5 6.75 9.5H7.875C8.02418 9.5 8.16726 9.55926 8.27275 9.66475C8.37824 9.77024 8.4375 9.91332 8.4375 10.0625V10.625H6.1875V10.0625Z" fill="white"/>
<path d="M12.375 13.4375H5.625C5.47582 13.4375 5.33274 13.4968 5.22725 13.6023C5.12176 13.7077 5.0625 13.8508 5.0625 14C5.0625 14.1492 5.12176 14.2923 5.22725 14.3977C5.33274 14.5032 5.47582 14.5625 5.625 14.5625H12.375C12.5242 14.5625 12.6673 14.5032 12.7727 14.3977C12.8782 14.2923 12.9375 14.1492 12.9375 14C12.9375 13.8508 12.8782 13.7077 12.7727 13.6023C12.6673 13.4968 12.5242 13.4375 12.375 13.4375Z" fill="white"/>
<path d="M12.375 10.625H11.25C11.1008 10.625 10.9577 10.6843 10.8523 10.7898C10.7468 10.8952 10.6875 11.0383 10.6875 11.1875C10.6875 11.3367 10.7468 11.4798 10.8523 11.5852C10.9577 11.6907 11.1008 11.75 11.25 11.75H12.375C12.5242 11.75 12.6673 11.6907 12.7727 11.5852C12.8782 11.4798 12.9375 11.3367 12.9375 11.1875C12.9375 11.0383 12.8782 10.8952 12.7727 10.7898C12.6673 10.6843 12.5242 10.625 12.375 10.625Z" fill="white"/>
<path d="M12.375 7.8125H11.25C11.1008 7.8125 10.9577 7.87176 10.8523 7.97725C10.7468 8.08274 10.6875 8.22582 10.6875 8.375C10.6875 8.52418 10.7468 8.66726 10.8523 8.77275C10.9577 8.87824 11.1008 8.9375 11.25 8.9375H12.375C12.5242 8.9375 12.6673 8.87824 12.7727 8.77275C12.8782 8.66726 12.9375 8.52418 12.9375 8.375C12.9375 8.22582 12.8782 8.08274 12.7727 7.97725C12.6673 7.87176 12.5242 7.8125 12.375 7.8125Z" fill="white"/>
</svg>
