<svg width="15" height="15" viewBox="0 0 15 15" fill="none" xmlns="http://www.w3.org/2000/svg">
<g clip-path="url(#clip0_710_1922)">
<path d="M4.3655 3.6861C4.1636 3.48403 3.83602 3.48403 3.63411 3.6861C2.88446 4.43575 2.516 5.48007 2.62308 6.55145C2.64979 6.81835 2.87464 7.01731 3.13722 7.01731C3.15448 7.01731 3.17187 7.01643 3.18912 7.01471C3.47344 6.98627 3.68084 6.73263 3.65241 6.4485C3.5762 5.68711 3.83621 4.94678 4.3655 4.41746C4.56757 4.21558 4.56757 3.88798 4.3655 3.6861Z" fill="#522583"/>
<path d="M6.4138 0.5C3.15292 0.5 0.5 3.15292 0.5 6.4138C0.5 9.67468 3.15292 12.3276 6.4138 12.3276C9.67468 12.3276 12.3276 9.67468 12.3276 6.4138C12.3276 3.15292 9.67465 0.5 6.4138 0.5ZM6.4138 11.2931C3.72328 11.2931 1.5345 9.10431 1.5345 6.4138C1.5345 3.72328 3.72328 1.5345 6.4138 1.5345C9.10415 1.5345 11.2931 3.72328 11.2931 6.4138C11.2931 9.10431 9.10431 11.2931 6.4138 11.2931Z" fill="#522583"/>
<path d="M14.3485 13.6171L10.5899 9.85846C10.3878 9.65639 10.0605 9.65639 9.85846 9.85846C9.65639 10.0604 9.65639 10.3879 9.85846 10.5899L13.6171 14.3485C13.7181 14.4495 13.8504 14.5 13.9828 14.5C14.1152 14.5 14.2475 14.4495 14.3485 14.3485C14.5505 14.1466 14.5505 13.819 14.3485 13.6171Z" fill="#522583"/>
</g>
<defs>
<clipPath id="clip0_710_1922">
<rect width="14" height="14" fill="white" transform="translate(0.5 0.5)"/>
</clipPath>
</defs>
</svg>
