<svg width="12" height="12" viewBox="0 0 12 12" fill="none" xmlns="http://www.w3.org/2000/svg">
<g clip-path="url(#clip0_710_2077)">
<path d="M3.1875 0.75C1.84125 0.75 0.75 1.84125 0.75 3.1875C0.75 4.53375 1.84125 5.625 3.1875 5.625C4.53375 5.625 5.625 4.53375 5.625 3.1875C5.625 1.84125 4.53375 0.75 3.1875 0.75ZM2.54437 4.21875H1.98187C1.87875 4.21875 1.79437 4.13438 1.79437 4.03125V2.90625C1.79437 2.80312 1.87875 2.71875 1.98187 2.71875H2.54437V4.21875ZM4.44 4.05375C4.42875 4.1475 4.34812 4.21875 4.25437 4.21875H2.91937V2.71875L3.20625 2.00063C3.26063 1.8675 3.38812 1.78125 3.53062 1.78125C3.72937 1.78125 3.87937 1.94625 3.87937 2.13C3.87937 2.17312 3.87 2.21625 3.85312 2.25938L3.66937 2.71875H4.395C4.5075 2.71875 4.59563 2.81813 4.58063 2.92875L4.44 4.05375Z" fill="#522583"/>
<path d="M8.8125 6.375C7.46625 6.375 6.375 7.46625 6.375 8.8125C6.375 10.1588 7.46625 11.25 8.8125 11.25C10.1588 11.25 11.25 10.1588 11.25 8.8125C11.25 7.46625 10.1588 6.375 8.8125 6.375ZM8.8125 10.29C8.8125 10.29 6.9675 8.96062 7.65188 7.96875C7.91063 7.59563 8.49187 7.64812 8.8125 7.96875C9.13313 7.64812 9.71437 7.59563 9.97312 7.96875C10.6575 8.95875 8.8125 10.29 8.8125 10.29Z" fill="#522583"/>
<path d="M8.8125 0.75C7.46625 0.75 6.375 1.84125 6.375 3.1875C6.375 4.53375 7.46625 5.625 8.8125 5.625C10.1588 5.625 11.25 4.53375 11.25 3.1875C11.25 1.84125 10.1588 0.75 8.8125 0.75ZM9.6825 4.41562L8.8125 3.94875L7.9425 4.41562L8.10938 3.42938L7.40625 2.73L8.3775 2.58562L8.8125 1.6875L9.2475 2.58562L10.2188 2.73L9.51562 3.42938L9.6825 4.41562Z" fill="#522583"/>
<path d="M3.1875 6.375C1.84125 6.375 0.75 7.46625 0.75 8.8125C0.75 10.1588 1.84125 11.25 3.1875 11.25C4.53375 11.25 5.625 10.1588 5.625 8.8125C5.625 7.46625 4.53375 6.375 3.1875 6.375ZM4.49813 9.2475C4.49813 9.40687 4.36688 9.53812 4.2075 9.53812H3.02625C3.00937 9.62437 2.97187 9.72937 2.89687 9.82875C2.64562 10.1625 2.1975 10.1231 2.16937 10.1194C2.22187 10.0256 2.28938 9.8775 2.31563 9.6825C2.32313 9.63 2.325 9.58125 2.325 9.53625H2.17125C2.01188 9.53625 1.88063 9.405 1.88063 9.24563V7.78875C1.88063 7.62938 2.01188 7.49813 2.17125 7.49813H4.21125C4.37062 7.49813 4.50187 7.62938 4.50187 7.78875V9.24563L4.49813 9.2475Z" fill="#522583"/>
</g>
<defs>
<clipPath id="clip0_710_2077">
<rect width="12" height="12" fill="white"/>
</clipPath>
</defs>
</svg>
