<svg width="12" height="12" viewBox="0 0 12 12" fill="none" xmlns="http://www.w3.org/2000/svg">
<path d="M5.06258 5.16003L5.38883 6.00003H4.73633L5.06258 5.16003Z" fill="#522583"/>
<path d="M9 0.75H3C2.70163 0.75 2.41548 0.868526 2.2045 1.0795C1.99353 1.29048 1.875 1.57663 1.875 1.875V10.125C1.875 10.4234 1.99353 10.7095 2.2045 10.9205C2.41548 11.1315 2.70163 11.25 3 11.25H7.125V9.375C7.125 9.07663 7.24353 8.79048 7.4545 8.5795C7.66548 8.36853 7.95163 8.25 8.25 8.25H10.125V1.875C10.125 1.57663 10.0065 1.29048 9.7955 1.0795C9.58452 0.868526 9.29837 0.75 9 0.75ZM6.51 7.84875C6.46722 7.86647 6.42131 7.8754 6.375 7.875C6.29946 7.87478 6.22575 7.85174 6.16352 7.80892C6.10129 7.7661 6.05344 7.70548 6.02625 7.635L5.68125 6.75H4.44375L4.09875 7.635C4.08375 7.68436 4.05872 7.73009 4.02523 7.76934C3.99175 7.80858 3.95053 7.8405 3.90415 7.86308C3.85776 7.88567 3.80722 7.89844 3.75568 7.90061C3.70413 7.90277 3.6527 7.89427 3.60459 7.87565C3.55648 7.85703 3.51273 7.82868 3.47607 7.79237C3.43942 7.75607 3.41065 7.71259 3.39157 7.66466C3.37248 7.61674 3.36349 7.56538 3.36516 7.51382C3.36682 7.46226 3.37911 7.4116 3.40125 7.365L4.71375 3.99C4.74139 3.92005 4.78943 3.86004 4.85162 3.81774C4.91382 3.77545 4.98729 3.75283 5.0625 3.75283C5.13771 3.75283 5.21118 3.77545 5.27338 3.81774C5.33557 3.86004 5.38361 3.92005 5.41125 3.99L6.28125 6.24L6.72375 7.365C6.75927 7.45751 6.75673 7.56033 6.71667 7.65097C6.67662 7.74162 6.60232 7.81272 6.51 7.84875ZM8.25 4.5H7.875V4.875C7.875 4.97446 7.83549 5.06984 7.76517 5.14016C7.69484 5.21049 7.59946 5.25 7.5 5.25C7.40054 5.25 7.30516 5.21049 7.23483 5.14016C7.16451 5.06984 7.125 4.97446 7.125 4.875V4.5H6.75C6.65054 4.5 6.55516 4.46049 6.48483 4.39016C6.41451 4.31984 6.375 4.22446 6.375 4.125C6.375 4.02554 6.41451 3.93016 6.48483 3.85984C6.55516 3.78951 6.65054 3.75 6.75 3.75H7.125V3.375C7.125 3.27554 7.16451 3.18016 7.23483 3.10984C7.30516 3.03951 7.40054 3 7.5 3C7.59946 3 7.69484 3.03951 7.76517 3.10984C7.83549 3.18016 7.875 3.27554 7.875 3.375V3.75H8.25C8.34946 3.75 8.44484 3.78951 8.51517 3.85984C8.58549 3.93016 8.625 4.02554 8.625 4.125C8.625 4.22446 8.58549 4.31984 8.51517 4.39016C8.44484 4.46049 8.34946 4.5 8.25 4.5ZM7.875 9.375V11.0325L9.9075 9H8.25C8.15054 9 8.05516 9.03951 7.98483 9.10983C7.91451 9.18016 7.875 9.27554 7.875 9.375Z" fill="#522583"/>
</svg>
