<svg width="14" height="16" viewBox="0 0 14 16" fill="none" xmlns="http://www.w3.org/2000/svg">
<path fill-rule="evenodd" clip-rule="evenodd" d="M4.33753 0.444219C4.33755 0.326516 4.38431 0.213639 4.46751 0.13039C4.55072 0.0471416 4.66357 0.000332828 4.78128 0.00025L9.2185 0C9.33623 0.000272936 9.44905 0.0472113 9.53223 0.130527C9.61541 0.213842 9.66216 0.326738 9.66225 0.444469V1.54188H4.33753V0.444219ZM11.6332 15.3643C11.6219 15.5374 11.5448 15.6995 11.4179 15.8176C11.2909 15.9357 11.1236 16.0008 10.9502 15.9996H2.99859C2.82523 15.9992 2.65847 15.9331 2.53179 15.8148C2.40511 15.6964 2.3279 15.5346 2.31565 15.3616L1.63521 5.40794H12.3594L11.6333 15.3642L11.6332 15.3643ZM13.4009 4.50644H0.599121V3.47519C0.599311 3.20168 0.708031 2.93943 0.90141 2.74601C1.09479 2.55259 1.35702 2.44381 1.63053 2.44356L12.3694 2.44322C12.6429 2.44364 12.905 2.55251 13.0984 2.74595C13.2917 2.93939 13.4004 3.20161 13.4007 3.47509V4.50634L13.4009 4.50644ZM4.93875 13.6268C4.93875 13.686 4.9504 13.7446 4.97305 13.7993C4.9957 13.8539 5.0289 13.9036 5.07075 13.9455C5.1126 13.9873 5.16228 14.0205 5.21696 14.0432C5.27164 14.0658 5.33025 14.0775 5.38943 14.0775C5.44862 14.0775 5.50722 14.0658 5.5619 14.0432C5.61658 14.0205 5.66627 13.9873 5.70812 13.9455C5.74997 13.9036 5.78316 13.8539 5.80581 13.7993C5.82846 13.7446 5.84012 13.686 5.84012 13.6268V7.30656C5.83917 7.1877 5.7913 7.07403 5.70693 6.9903C5.62256 6.90658 5.50853 6.85957 5.38967 6.85953C5.2708 6.85949 5.15674 6.90641 5.07231 6.99008C4.98788 7.07375 4.93993 7.18739 4.9389 7.30625V13.6268H4.93875ZM8.15437 13.6268C8.15437 13.7463 8.20186 13.861 8.28639 13.9455C8.37092 14.03 8.48558 14.0775 8.60512 14.0775C8.72467 14.0775 8.83932 14.03 8.92385 13.9455C9.00838 13.861 9.05587 13.7463 9.05587 13.6268V7.30656C9.05492 7.18769 9.00705 7.074 8.92266 6.99026C8.83828 6.90652 8.72423 6.85951 8.60535 6.85947C8.48647 6.85943 8.37239 6.90636 8.28795 6.99004C8.20351 7.07372 8.15556 7.18738 8.15453 7.30625L8.15437 13.6268Z" fill="#E75050"/>
</svg>
