<svg width="31" height="31" viewBox="0 0 31 31" fill="none" xmlns="http://www.w3.org/2000/svg">
<g clip-path="url(#clip0_710_1969)">
<path d="M28.5526 0H2.44737C1.09572 0 0 1.09572 0 2.44737V28.5526C0 29.9043 1.09572 31 2.44737 31H28.5526C29.9043 31 31 29.9043 31 28.5526V2.44737C31 1.09572 29.9043 0 28.5526 0Z" fill="#03A9F4"/>
<path d="M25.5404 9.2735C24.7851 9.60333 23.9863 9.82245 23.1685 9.92409C24.0306 9.41286 24.675 8.60295 24.9795 7.64804C24.1726 8.12698 23.2897 8.46428 22.369 8.64534C21.8048 8.04196 21.0721 7.62232 20.2662 7.441C19.4602 7.25969 18.6184 7.32508 17.8502 7.62869C17.0819 7.93229 16.4228 8.46005 15.9586 9.14332C15.4943 9.82659 15.2464 10.6337 15.2471 11.4598C15.2442 11.7751 15.2764 12.0898 15.343 12.398C13.7052 12.3175 12.1029 11.8925 10.6406 11.1506C9.17827 10.4087 7.88892 9.36673 6.85674 8.09264C6.32619 8.999 6.16182 10.0738 6.39723 11.0973C6.63263 12.1208 7.25004 13.0157 8.12326 13.5992C7.47149 13.5816 6.83352 13.4075 6.26325 13.0914V13.1363C6.26509 14.0863 6.59393 15.0067 7.1945 15.7429C7.79507 16.479 8.63076 16.986 9.56108 17.1785C9.20901 17.271 8.84621 17.3163 8.4822 17.3131C8.2201 17.3179 7.95823 17.2947 7.70108 17.2438C7.96762 18.0608 8.48075 18.7752 9.16992 19.2887C9.85908 19.8022 10.6904 20.0896 11.5496 20.1113C10.0936 21.2493 8.2988 21.8674 6.45089 21.8672C6.12163 21.87 5.79255 21.851 5.46582 21.8101C7.35003 23.025 9.54632 23.6668 11.7882 23.6579C19.3648 23.6579 23.507 17.3824 23.507 11.9432C23.507 11.7617 23.507 11.5863 23.4927 11.4109C24.2994 10.8287 24.9933 10.1044 25.5404 9.2735Z" fill="white"/>
</g>
<defs>
<clipPath id="clip0_710_1969">
<rect width="31" height="31" fill="white"/>
</clipPath>
</defs>
</svg>
