<svg width="40" height="40" viewBox="0 0 40 40" fill="none" xmlns="http://www.w3.org/2000/svg">
<path d="M29.6872 13.8058C29.1469 11.6463 27.9007 9.72911 26.1464 8.35878C24.392 6.98844 22.2302 6.24348 20.0041 6.24219C17.778 6.2409 15.6153 6.98335 13.8594 8.35164C12.1034 9.71994 10.855 11.6356 10.3122 13.7946C7.75199 14.0348 5.38274 15.2521 3.69657 17.1936C2.0104 19.135 1.13694 21.6514 1.25761 24.2201C1.37828 26.7887 2.4838 29.2121 4.34455 30.987C6.2053 32.7618 8.67824 33.7516 11.2497 33.7508H14.9997C15.3312 33.7508 15.6492 33.6191 15.8836 33.3847C16.118 33.1503 16.2497 32.8323 16.2497 32.5008C16.2497 32.1693 16.118 31.8513 15.8836 31.6169C15.6492 31.3825 15.3312 31.2508 14.9997 31.2508H11.2497C10.2648 31.2537 9.28896 31.0625 8.37791 30.6883C7.46687 30.314 6.63847 29.764 5.94 29.0696C4.52937 27.6672 3.73363 25.7618 3.72783 23.7727C3.72203 21.7836 4.50664 19.8736 5.90906 18.463C7.31148 17.0524 9.21683 16.2566 11.206 16.2508C11.5267 16.275 11.845 16.1791 12.099 15.9819C12.3531 15.7846 12.5248 15.5 12.581 15.1833C12.8355 13.3984 13.7254 11.7652 15.0874 10.5837C16.4493 9.40225 18.1917 8.75177 19.9947 8.75177C21.7977 8.75177 23.5401 9.40225 24.9021 10.5837C26.264 11.7652 27.1539 13.3984 27.4085 15.1833C27.4738 15.489 27.6433 15.7626 27.8879 15.9573C28.1325 16.1519 28.4371 16.2557 28.7497 16.2508C30.7388 16.2508 32.6465 17.041 34.053 18.4475C35.4595 19.854 36.2497 21.7617 36.2497 23.7508C36.2497 25.7399 35.4595 27.6476 34.053 29.0541C32.6465 30.4606 30.7388 31.2508 28.7497 31.2508H24.9997C24.6682 31.2508 24.3502 31.3825 24.1158 31.6169C23.8814 31.8513 23.7497 32.1693 23.7497 32.5008C23.7497 32.8323 23.8814 33.1503 24.1158 33.3847C24.3502 33.6191 24.6682 33.7508 24.9997 33.7508H28.7497C31.3024 33.7241 33.7481 32.7222 35.5859 30.9503C37.4236 29.1785 38.5142 26.7709 38.634 24.2209C38.7539 21.6709 37.894 19.1716 36.2306 17.2352C34.5671 15.2988 32.2261 14.0719 29.6872 13.8058Z" fill="#522583" fill-opacity="0.7"/>
<path d="M25.366 24.6335C25.6018 24.8612 25.9175 24.9872 26.2453 24.9843C26.573 24.9815 26.8865 24.85 27.1183 24.6183C27.3501 24.3865 27.4815 24.073 27.4844 23.7452C27.4872 23.4175 27.3612 23.1017 27.1335 22.866L20.8835 16.616C20.6491 16.3816 20.3312 16.25 19.9998 16.25C19.6683 16.25 19.3504 16.3816 19.116 16.616L12.866 22.866C12.6383 23.1017 12.5123 23.4175 12.5152 23.7452C12.518 24.073 12.6495 24.3865 12.8813 24.6183C13.113 24.85 13.4265 24.9815 13.7543 24.9843C14.082 24.9872 14.3978 24.8612 14.6335 24.6335L18.7498 20.5172V36.2497C18.7498 36.5813 18.8815 36.8992 19.1159 37.1336C19.3503 37.368 19.6683 37.4997 19.9998 37.4997C20.3313 37.4997 20.6492 37.368 20.8837 37.1336C21.1181 36.8992 21.2498 36.5813 21.2498 36.2497V20.5172L25.366 24.6335Z" fill="#522583" fill-opacity="0.7"/>
</svg>
