<svg width="16" height="17" viewBox="0 0 16 17" fill="none" xmlns="http://www.w3.org/2000/svg">
<path d="M14.6665 9.16669C14.4897 9.16669 14.3201 9.23693 14.1951 9.36195C14.0701 9.48697 13.9998 9.65654 13.9998 9.83335V12.642C13.9993 13.1346 13.8034 13.6069 13.4551 13.9552C13.1067 14.3036 12.6344 14.4995 12.1418 14.5H3.85784C3.36523 14.4995 2.89295 14.3036 2.54462 13.9552C2.19629 13.6069 2.00037 13.1346 1.99984 12.642V9.83335C1.99984 9.65654 1.9296 9.48697 1.80458 9.36195C1.67955 9.23693 1.50998 9.16669 1.33317 9.16669C1.15636 9.16669 0.98679 9.23693 0.861766 9.36195C0.736742 9.48697 0.666504 9.65654 0.666504 9.83335V12.642C0.667386 13.4881 1.0039 14.2994 1.6022 14.8977C2.2005 15.496 3.01171 15.8325 3.85784 15.8334H12.1418C12.988 15.8325 13.7992 15.496 14.3975 14.8977C14.9958 14.2994 15.3323 13.4881 15.3332 12.642V9.83335C15.3332 9.65654 15.2629 9.48697 15.1379 9.36195C15.0129 9.23693 14.8433 9.16669 14.6665 9.16669Z" fill="white"/>
<path d="M4.47136 6.30467L7.33336 3.44267V11.8333C7.33336 12.0101 7.4036 12.1797 7.52862 12.3047C7.65365 12.4298 7.82322 12.5 8.00003 12.5C8.17684 12.5 8.34641 12.4298 8.47143 12.3047C8.59646 12.1797 8.66669 12.0101 8.66669 11.8333V3.44267L11.5287 6.30467C11.6544 6.42611 11.8228 6.4933 11.9976 6.49178C12.1724 6.49026 12.3396 6.42015 12.4632 6.29655C12.5868 6.17294 12.657 6.00573 12.6585 5.83093C12.66 5.65614 12.5928 5.48774 12.4714 5.362L8.47136 1.362C8.34634 1.23702 8.1768 1.16681 8.00003 1.16681C7.82325 1.16681 7.65371 1.23702 7.52869 1.362L3.52869 5.362C3.40726 5.48774 3.34006 5.65614 3.34158 5.83093C3.3431 6.00573 3.41321 6.17294 3.53682 6.29655C3.66042 6.42015 3.82763 6.49026 4.00243 6.49178C4.17722 6.4933 4.34563 6.42611 4.47136 6.30467Z" fill="white"/>
</svg>
